<svg width="22" height="30" viewBox="0 0 22 30" fill="none" xmlns="http://www.w3.org/2000/svg">
<path d="M14.4014 18.7106C14.5701 18.6697 14.7463 18.6714 14.9142 18.7158C15.082 18.7602 15.2361 18.8457 15.3625 18.9646L20.2003 23.6585C20.3648 23.8126 20.475 24.0159 20.5143 24.2379C20.5536 24.4599 20.5199 24.6887 20.4184 24.89C19.71 26.2438 18.534 27.2942 17.1091 27.8459C15.6843 28.3977 14.1076 28.4131 12.6722 27.8894C8.25108 26.2803 4.6503 22.9808 2.66196 18.7168C0.673623 14.4528 0.46059 9.57353 2.06973 5.15245C2.59122 3.71625 3.61657 2.51834 4.9551 1.78148C6.29363 1.04463 7.85421 0.818987 9.34664 1.14653C9.56611 1.19811 9.76297 1.31937 9.90776 1.49218C10.0526 1.66499 10.1375 1.88004 10.1498 2.10515L10.6341 8.83318C10.6436 9.00493 10.6106 9.17638 10.5378 9.33227C10.4651 9.48816 10.355 9.62366 10.2172 9.7267L6.46429 11.8879C6.32035 11.9943 6.20648 12.1362 6.1338 12.2997C6.06113 12.4633 6.03215 12.6429 6.04968 12.8211C6.30806 15.2651 7.68171 18.1651 9.3976 19.9265C9.5237 20.0544 9.68096 20.1472 9.85388 20.1958C10.0268 20.2444 10.2094 20.247 10.3837 20.2035L14.4014 18.7106Z" stroke="white" stroke-width="2" stroke-linecap="round" stroke-linejoin="round"/>
</svg>
