<svg width="161" height="49" viewBox="0 0 161 49" fill="none" xmlns="http://www.w3.org/2000/svg">
<path d="M1.872 48.72C1.296 48.72 0.832001 48.544 0.48 48.192C0.16 47.872 4.76837e-07 47.424 4.76837e-07 46.848V24.192C0.0320005 21.696 0.624001 19.456 1.776 17.472C2.96 15.456 4.544 13.872 6.528 12.72C8.544 11.568 10.8 10.992 13.296 10.992C15.856 10.992 18.144 11.584 20.16 12.768C22.176 13.92 23.76 15.504 24.912 17.52C26.096 19.536 26.688 21.824 26.688 24.384C26.688 26.912 26.112 29.184 24.96 31.2C23.84 33.216 22.304 34.816 20.352 36C18.4 37.152 16.192 37.728 13.728 37.728C11.584 37.728 9.632 37.28 7.872 36.384C6.144 35.456 4.752 34.24 3.696 32.736V46.848C3.696 47.424 3.52 47.872 3.168 48.192C2.848 48.544 2.416 48.72 1.872 48.72ZM13.296 34.368C15.152 34.368 16.816 33.936 18.288 33.072C19.76 32.208 20.912 31.024 21.744 29.52C22.608 27.984 23.04 26.272 23.04 24.384C23.04 22.464 22.608 20.752 21.744 19.248C20.912 17.744 19.76 16.56 18.288 15.696C16.816 14.8 15.152 14.352 13.296 14.352C11.472 14.352 9.824 14.8 8.352 15.696C6.88 16.56 5.728 17.744 4.896 19.248C4.064 20.752 3.648 22.464 3.648 24.384C3.648 26.272 4.064 27.984 4.896 29.52C5.728 31.024 6.88 32.208 8.352 33.072C9.824 33.936 11.472 34.368 13.296 34.368ZM35.8095 26.784C35.2335 26.784 34.7695 26.608 34.4175 26.256C34.0975 25.904 33.9375 25.456 33.9375 24.912V1.872C33.9375 1.296 34.0975 0.847999 34.4175 0.527999C34.7695 0.176 35.2335 0 35.8095 0C36.3535 0 36.7855 0.176 37.1055 0.527999C37.4575 0.847999 37.6335 1.296 37.6335 1.872V24.912C37.6335 25.456 37.4575 25.904 37.1055 26.256C36.7855 26.608 36.3535 26.784 35.8095 26.784ZM56.4495 37.488C55.9055 37.488 55.4575 37.312 55.1055 36.96C54.7535 36.608 54.5775 36.176 54.5775 35.664V23.184C54.5775 21.2 54.1935 19.568 53.4255 18.288C52.6895 17.008 51.6655 16.048 50.3535 15.408C49.0735 14.768 47.6175 14.448 45.9855 14.448C44.4175 14.448 42.9935 14.752 41.7135 15.36C40.4655 15.968 39.4735 16.8 38.7375 17.856C38.0015 18.912 37.6335 20.112 37.6335 21.456H34.9935C35.0575 19.44 35.6015 17.648 36.6255 16.08C37.6495 14.48 39.0095 13.232 40.7055 12.336C42.4015 11.408 44.2895 10.944 46.3695 10.944C48.6415 10.944 50.6735 11.424 52.4655 12.384C54.2575 13.312 55.6655 14.688 56.6895 16.512C57.7455 18.336 58.2735 20.56 58.2735 23.184V35.664C58.2735 36.176 58.0975 36.608 57.7455 36.96C57.3935 37.312 56.9615 37.488 56.4495 37.488ZM35.8095 37.488C35.2335 37.488 34.7695 37.328 34.4175 37.008C34.0975 36.656 33.9375 36.208 33.9375 35.664V13.104C33.9375 12.528 34.0975 12.08 34.4175 11.76C34.7695 11.408 35.2335 11.232 35.8095 11.232C36.3535 11.232 36.7855 11.408 37.1055 11.76C37.4575 12.08 37.6335 12.528 37.6335 13.104V35.664C37.6335 36.208 37.4575 36.656 37.1055 37.008C36.7855 37.328 36.3535 37.488 35.8095 37.488ZM78.3739 37.728C75.8139 37.728 73.5259 37.152 71.5099 36C69.4939 34.848 67.9099 33.264 66.7579 31.248C65.6059 29.232 65.0299 26.944 65.0299 24.384C65.0299 21.792 65.6059 19.488 66.7579 17.472C67.9099 15.456 69.4939 13.872 71.5099 12.72C73.5259 11.568 75.8139 10.992 78.3739 10.992C80.9339 10.992 83.2059 11.568 85.1899 12.72C87.2059 13.872 88.7899 15.456 89.9419 17.472C91.0939 19.488 91.6859 21.792 91.7179 24.384C91.7179 26.944 91.1259 29.232 89.9419 31.248C88.7899 33.264 87.2059 34.848 85.1899 36C83.2059 37.152 80.9339 37.728 78.3739 37.728ZM78.3739 34.368C80.2299 34.368 81.8939 33.936 83.3659 33.072C84.8379 32.208 85.9899 31.024 86.8219 29.52C87.6539 28.016 88.0699 26.304 88.0699 24.384C88.0699 22.464 87.6539 20.752 86.8219 19.248C85.9899 17.712 84.8379 16.512 83.3659 15.648C81.8939 14.784 80.2299 14.352 78.3739 14.352C76.5179 14.352 74.8539 14.784 73.3819 15.648C71.9099 16.512 70.7419 17.712 69.8779 19.248C69.0459 20.752 68.6299 22.464 68.6299 24.384C68.6299 26.304 69.0459 28.016 69.8779 29.52C70.7419 31.024 71.9099 32.208 73.3819 33.072C74.8539 33.936 76.5179 34.368 78.3739 34.368ZM100.442 21.312C100.538 19.328 101.05 17.552 101.978 15.984C102.938 14.416 104.17 13.184 105.674 12.288C107.21 11.392 108.906 10.944 110.762 10.944C112.234 10.944 113.37 11.152 114.17 11.568C114.97 11.984 115.274 12.592 115.082 13.392C114.954 13.872 114.73 14.192 114.41 14.352C114.122 14.512 113.754 14.576 113.306 14.544C112.89 14.512 112.41 14.48 111.866 14.448C110.074 14.288 108.474 14.48 107.066 15.024C105.69 15.536 104.586 16.336 103.754 17.424C102.954 18.512 102.554 19.808 102.554 21.312H100.442ZM100.73 37.488C100.154 37.488 99.7063 37.328 99.3863 37.008C99.0663 36.688 98.9063 36.24 98.9063 35.664V13.056C98.9063 12.48 99.0663 12.032 99.3863 11.712C99.7063 11.392 100.154 11.232 100.73 11.232C101.306 11.232 101.754 11.392 102.074 11.712C102.394 12.032 102.554 12.48 102.554 13.056V35.664C102.554 36.24 102.394 36.688 102.074 37.008C101.754 37.328 101.306 37.488 100.73 37.488ZM123.531 37.488C122.955 37.488 122.491 37.328 122.139 37.008C121.819 36.656 121.659 36.192 121.659 35.616V13.104C121.659 12.528 121.819 12.08 122.139 11.76C122.491 11.408 122.955 11.232 123.531 11.232C124.075 11.232 124.507 11.408 124.827 11.76C125.179 12.08 125.355 12.528 125.355 13.104V35.616C125.355 36.192 125.179 36.656 124.827 37.008C124.507 37.328 124.075 37.488 123.531 37.488ZM123.483 6.24C122.779 6.24 122.171 5.984 121.659 5.472C121.147 4.96 120.891 4.336 120.891 3.6C120.891 2.8 121.147 2.176 121.659 1.728C122.203 1.248 122.827 1.008 123.531 1.008C124.203 1.008 124.795 1.248 125.307 1.728C125.851 2.176 126.123 2.8 126.123 3.6C126.123 4.336 125.867 4.96 125.355 5.472C124.843 5.984 124.219 6.24 123.483 6.24ZM146.334 37.728C143.87 37.728 141.662 37.152 139.71 36C137.758 34.816 136.206 33.216 135.054 31.2C133.934 29.184 133.374 26.912 133.374 24.384C133.374 21.824 133.95 19.536 135.102 17.52C136.286 15.504 137.886 13.92 139.902 12.768C141.918 11.584 144.19 10.992 146.718 10.992C149.246 10.992 151.502 11.584 153.486 12.768C155.502 13.92 157.086 15.504 158.238 17.52C159.422 19.536 160.03 21.824 160.062 24.384L158.574 25.536C158.574 27.84 158.03 29.92 156.942 31.776C155.886 33.6 154.43 35.056 152.574 36.144C150.75 37.2 148.67 37.728 146.334 37.728ZM146.718 34.368C148.574 34.368 150.222 33.936 151.662 33.072C153.134 32.208 154.286 31.024 155.118 29.52C155.982 27.984 156.414 26.272 156.414 24.384C156.414 22.464 155.982 20.752 155.118 19.248C154.286 17.744 153.134 16.56 151.662 15.696C150.222 14.8 148.574 14.352 146.718 14.352C144.894 14.352 143.246 14.8 141.774 15.696C140.302 16.56 139.134 17.744 138.27 19.248C137.406 20.752 136.974 22.464 136.974 24.384C136.974 26.272 137.406 27.984 138.27 29.52C139.134 31.024 140.302 32.208 141.774 33.072C143.246 33.936 144.894 34.368 146.718 34.368ZM158.19 37.488C157.646 37.488 157.198 37.328 156.846 37.008C156.494 36.656 156.318 36.208 156.318 35.664V27.456L157.23 23.664L160.062 24.384V35.664C160.062 36.208 159.886 36.656 159.534 37.008C159.182 37.328 158.734 37.488 158.19 37.488Z" fill="white"/>
</svg>
